# xmcd
#
# Track frame offsets:
#	150
#	12140
#	23958
#	36342
#	49132
#	60130
#	71725
#	82603
#	96598
#	112320
#
# Disc length: 1721 seconds
#
# Revision: 1
# Processed by: cddbd v1.5.2PL0 Copyright (c) Steve Scherf et al.
# Submitted via: audiograbber 1.83.01
#
DISCID=7e06b70a
DTITLE=Billy McCoy - We Are Forever Billy McCoy
DYEAR=1900
DGENRE=
TTITLE0=I Have To Hold The Ring (And Kiss The Bride)
TTITLE1=Cajun Fiddle Man
TTITLE2=The Hero The County Laid To Rest
TTITLE3=Ma Cher A Mio
TTITLE4=Baby´s Coming Home
TTITLE5=Alice Loves Fort Worth
TTITLE6=We Are Forever
TTITLE7=Luisa
TTITLE8=Dancing The Cowboy Way
TTITLE9=Born Again
EXTD=
EXTT0=
EXTT1=
EXTT2=
EXTT3=
EXTT4=
EXTT5=
EXTT6=
EXTT7=
EXTT8=
EXTT9=
PLAYORDER=
